<?xml version="1.0" encoding="utf-8"?>
<svg version="1.1" xmlns:xlink="http://www.w3.org/1999/xlink" width="40px" height="32px" xmlns="http://www.w3.org/2000/svg">
  <g transform="matrix(1 0 0 1 -35 -1124 )">
    <path d="M 34.2503097893432 18.282151208106  C 34.2668318876497 18.3154065991167  34.275092936803 18.3652896856326  34 18.4318004676539  L 34 30.4037412314887  C 34.275092936803 30.8360613146272  34.1181330028914 31.210184463497  33.8042131350682 31.5261106780982  C 33.4902932672449 31.8420368926994  33.118546055349 32  32.6889714993804 32  L 23.1722428748451 32  L 23.1722428748451 22.4224473889322  L 16.8277571251549 22.4224473889322  L 16.8277571251549 32  L 7.31102850061958 32  C 6.88145394465097 32  6.50970673275506 31.8420368926994  6.19578686493185 31.5261106780982  C 5.88186699710863 31.210184463497  5.72490706319703 30.8360613146272  6 30.4037412314887  L 6 18.4318004676539  C 5.72490706319703 18.4151727721486  5.72903758777365 18.3902312288906  5.73729863692689 18.35697583788  C 5.74555968608013 18.3237204468693  5.74969021065675 18.2987789036113  5.74969021065675 18.282151208106  L 20 6.45985970381917  L 34.2503097893432 18.282151208106  Z M 39.9752168525403 16.1247077162899  C 39.9917389508468 16.3491816056118  39.9339116067741 16.5445570277994  39.8017348203222 16.7108339828527  L 38.2651796778191 18.5565081839439  C 38.1330028913672 18.7061574434918  37.9595208591491 18.7976097687711  37.7447335811648 18.8308651597818  L 37.6703841387856 18.8308651597818  C 37.4555968608013 18.8308651597818  37.2821148285832 18.7726682255131  37.1499380421314 18.6562743569758  L 20 4.26500389711613  L 2.85006195786865 18.6562743569758  C 2.65179677819083 18.7892959210184  2.45353159851301 18.8474928552871  2.25526641883519 18.8308651597818  C 2.04047914085089 18.7976097687711  1.8669971086328 18.7061574434918  1.73482032218092 18.5565081839439  L 0.198265179677819 16.7108339828527  C 0.0660883932259397 16.5445570277994  0.00826104915324252 16.3491816056118  0.0247831474597274 16.1247077162899  C 0.0413052457662124 15.900233826968  0.132176786451879 15.7214861002858  0.297397769516729 15.5884645362432  L 18.1164807930607 0.648480124707717  C 18.6451879388682 0.216160041569236  19.2730276745147 0  20 0  C 20.7269723254853 0  21.3548120611318 0.216160041569236  21.8835192069393 0.648480124707717  L 27.9306071871128 5.73655494933749  L 27.9306071871128 0.872954014029617  C 27.9306071871128 0.64016627695505  28.0049566294919 0.448947778643802  28.1536555142503 0.299298519095871  C 28.3023543990087 0.149649259547935  28.4923585295332 0.0748246297739676  28.723667905824 0.0748246297739676  L 33.4820322180917 0.0748246297739676  C 33.7133415943825 0.0748246297739676  33.9033457249071 0.149649259547935  34.0520446096654 0.299298519095871  C 34.2007434944238 0.448947778643802  34.275092936803 0.64016627695505  34 0.872954014029617  L 34 11.0491036632892  L 39.7026022304833 15.5884645362432  C 39.8678232135481 15.7214861002858  39.9586947542338 15.900233826968  39.9752168525403 16.1247077162899  Z " fill-rule="nonzero" fill="#d0d0d0" stroke="none" transform="matrix(1 0 0 1 35 1124 )" />
  </g>
</svg>